<?xml version="1.0" standalone="no"?><!DOCTYPE svg PUBLIC "-//W3C//DTD SVG 1.1//EN" "http://www.w3.org/Graphics/SVG/1.1/DTD/svg11.dtd"><svg t="1723018064548" class="icon" viewBox="0 0 1024 1024" version="1.1" xmlns="http://www.w3.org/2000/svg" p-id="13180" xmlns:xlink="http://www.w3.org/1999/xlink" width="20" height="20"><path d="M512 824.384A312.352 312.352 0 0 0 824.384 512 312.352 312.352 0 0 0 512 199.616 312.352 312.352 0 0 0 199.616 512 312.352 312.352 0 0 0 512 824.384zM512 864C317.6 864 160 706.4 160 512S317.6 160 512 160s352 157.6 352 352-157.6 352-352 352zM313.984 512a19.84 19.84 0 0 1 19.648-19.808h356.736a19.84 19.84 0 0 1 0 39.616H333.632A19.936 19.936 0 0 1 313.984 512z" fill="#454545" p-id="13181"></path></svg>