<?xml version="1.0" standalone="no"?><!DOCTYPE svg PUBLIC "-//W3C//DTD SVG 1.1//EN" "http://www.w3.org/Graphics/SVG/1.1/DTD/svg11.dtd"><svg t="1723017755333" class="icon" viewBox="0 0 1024 1024" version="1.1" xmlns="http://www.w3.org/2000/svg" p-id="11288" width="20" height="20" xmlns:xlink="http://www.w3.org/1999/xlink"><path d="M512 824.384A312.352 312.352 0 0 0 824.384 512 312.352 312.352 0 0 0 512 199.616 312.352 312.352 0 0 0 199.616 512 312.352 312.352 0 0 0 512 824.384z m-21.984-332.192h-156.384a19.84 19.84 0 0 0-19.648 19.808 19.936 19.936 0 0 0 19.648 19.808h156.384v158.56a19.84 19.84 0 0 0 19.776 19.616 19.936 19.936 0 0 0 19.808-19.616v-158.56h160.768a19.84 19.84 0 0 0 0-39.616H529.6v-158.56a19.84 19.84 0 0 0-19.776-19.648 19.968 19.968 0 0 0-19.84 19.648h0.032v158.56zM512 864C317.6 864 160 706.4 160 512S317.6 160 512 160s352 157.6 352 352-157.6 352-352 352z" fill="#454545" p-id="11289"></path></svg>